<svg
   xmlns:dc="http://purl.org/dc/elements/1.1/"
   xmlns:cc="http://creativecommons.org/ns#"
   xmlns:rdf="http://www.w3.org/1999/02/22-rdf-syntax-ns#"
   xmlns:svg="http://www.w3.org/2000/svg"
   xmlns="http://www.w3.org/2000/svg"
   xmlns:sodipodi="http://sodipodi.sourceforge.net/DTD/sodipodi-0.dtd"
   xmlns:inkscape="http://www.inkscape.org/namespaces/inkscape"
   version="1.0"
   width="96.411858"
   height="176.09171"
   viewBox="0 0 2.8923557 5.8697235"
   id="svg2"
   sodipodi:version="0.32"
   inkscape:version="0.92.3 (2405546, 2018-03-11)"
   sodipodi:docname="red_hand_of_ulster.svg"
   inkscape:output_extension="org.inkscape.output.svg.inkscape">
  <title
     id="title833">Red Hand of Ulster</title>
  <metadata
     id="metadata23">
    <rdf:RDF>
      <cc:Work
         rdf:about="">
        <dc:format>image/svg+xml</dc:format>
        <dc:type
           rdf:resource="http://purl.org/dc/dcmitype/StillImage" />
        <dc:title>Red Hand of Ulster</dc:title>
        <dc:date>November 2019</dc:date>
        <dc:creator>
          <cc:Agent>
            <dc:title>Paul McAuley</dc:title>
          </cc:Agent>
        </dc:creator>
        <dc:rights>
          <cc:Agent>
            <dc:title />
          </cc:Agent>
        </dc:rights>
        <dc:subject>
          <rdf:Bag />
        </dc:subject>
        <cc:license
           rdf:resource="http://creativecommons.org/licenses/by/4.0/" />
        <dc:description></dc:description>
        <dc:contributor>
          <cc:Agent>
            <dc:title></dc:title>
          </cc:Agent>
        </dc:contributor>
      </cc:Work>
      <cc:License
         rdf:about="http://creativecommons.org/licenses/by/4.0/">
        <cc:permits
           rdf:resource="http://creativecommons.org/ns#Reproduction" />
        <cc:permits
           rdf:resource="http://creativecommons.org/ns#Distribution" />
        <cc:requires
           rdf:resource="http://creativecommons.org/ns#Notice" />
        <cc:requires
           rdf:resource="http://creativecommons.org/ns#Attribution" />
        <cc:permits
           rdf:resource="http://creativecommons.org/ns#DerivativeWorks" />
      </cc:License>
    </rdf:RDF>
  </metadata>
  <sodipodi:namedview
     inkscape:window-height="841"
     inkscape:window-width="1471"
     inkscape:pageshadow="2"
     inkscape:pageopacity="0.0"
     guidetolerance="10.0"
     gridtolerance="10.0"
     objecttolerance="10.0"
     borderopacity="1.0"
     bordercolor="#666666"
     pagecolor="#ffffff"
     id="base"
     showgrid="false"
     showguides="true"
     inkscape:guide-bbox="true"
     inkscape:zoom="1.8101934"
     inkscape:cx="70.555985"
     inkscape:cy="65.861975"
     inkscape:window-x="57"
     inkscape:window-y="-8"
     inkscape:current-layer="svg2"
     inkscape:window-maximized="1"
     fit-margin-top="0"
     fit-margin-left="0"
     fit-margin-right="0"
     fit-margin-bottom="0" />
  <defs
     id="defs16" />
  <g
     id="g1009"
     inkscape:label="redhand"
     transform="matrix(0.08113359,0,0,0.08113359,-15.669033,-8.8276868)">
    <path
       sodipodi:nodetypes="cccssssscscsscsccssscssssssscssccssscscsssccscssscccc"
       d="m 219.25904,166.66105 c 1.47623,-1.45257 3.62815,-2.08657 5.09863,-5.88719 1.23461,-3.27182 2.17456,-8.44052 3.01355,-11.55627 0.30953,-1.09784 0.72407,-3.22152 1.09756,-4.7784 0.32662,-1.36152 0.90913,-2.7712 1.07527,-3.33313 0.32308,-1.09273 0.43188,-2.36825 0.57388,-3.26 0.30903,-1.94054 0.5732,-3.28888 -0.89048,-3.14437 -1.52898,0.15096 -1.97325,0.37768 -2.60348,1.29849 -0.58159,0.84974 -1.32971,2.07255 -1.76935,3.44288 -0.60092,1.98218 -1.03426,3.76929 -1.56934,5.15228 -0.62179,1.60708 -0.73646,1.38669 -1.64054,3.29531 -1.24865,-1.65981 -1.33748,-2.99954 -1.6458,-5.30924 -0.30673,-2.29782 -0.55944,-4.74213 -0.64654,-7.37449 -0.16382,-4.95076 -0.4524,-10.1388 -0.51272,-12.06144 -0.16223,-2.53854 0.0133,-6.19137 -0.58202,-8.06736 -0.2775,-0.87445 -0.88744,-2.07959 -2.05442,-2.04289 -1.35359,0.01 -2.21698,1.07384 -2.39981,2.18004 -0.13175,0.87414 -0.19694,2.55045 -0.24994,3.68243 -0.077,1.64502 -0.0667,3.05501 -0.004,4.67468 0.0688,1.78021 0.0151,7.23696 -0.0203,9.01211 -0.0654,3.27744 -0.47267,3.45832 -1.08099,3.41644 -0.4689,-0.39162 -0.23161,-6.69477 -0.41709,-12.13602 -0.0704,-2.06436 -0.12503,-4.79276 -0.16093,-6.68825 -0.029,-1.53295 -0.0283,-3.36608 -0.19273,-4.55696 -0.28065,-2.03184 -0.8783,-3.34063 -2.35218,-3.34063 -0.99407,0 -1.81643,0.0334 -2.27162,2.29301 -0.24534,1.2179 -0.35023,4.18955 -0.31683,5.81751 0.0373,1.81825 0.0447,2.89002 0.0939,5.39182 0.0898,4.57085 0.48348,12.86914 -0.60709,13.07765 -0.95481,-0.20459 -0.81353,-2.00028 -0.98078,-6.3422 -0.0659,-1.71046 -0.20943,-4.63764 -0.3012,-6.61048 -0.10972,-2.35903 -0.24064,-5.79423 -0.29976,-7.36791 -0.16084,-1.45365 -0.30224,-3.40286 -2.13164,-3.23846 -0.96032,-0.11738 -1.66448,0.61509 -2.07391,3.20421 -0.22801,1.44189 -0.0726,7.18926 0.0145,9.10082 0.17333,3.80527 0.1183,4.73539 0.13968,7.1312 0.0208,2.32477 0.2452,5.49198 -0.62068,5.54684 -1.04246,-0.0153 -0.74332,-1.69522 -0.91455,-4.35813 -0.16801,-2.61288 -0.27406,-5.94559 -0.25279,-5.18065 0,-1.34533 -0.16617,-3.32206 -0.28753,-4.97458 -0.0949,-1.29053 -0.0356,-2.71431 -1.4354,-2.60059 -1.42071,0.11542 -2.29283,0.59574 -2.58674,3.02805 -0.1904,1.57562 -0.24265,4.98198 -0.28409,6.21667 0.15272,3.1407 -0.61448,9.52948 -0.99471,11.61161 -0.10386,1.47537 -0.75823,4.32809 -1.00457,6.3849 -0.52998,4.42651 -0.74019,7.48802 -0.15434,10.14074 0.46046,2.31491 0.78691,4.12478 1.68274,5.98201 0.83192,1.72476 2.38746,3.37637 2.72959,4.79344 0.6679,2.76639 0.35549,8.10587 0.35549,10.34925 0,2.24339 1.94877,2.36428 5.98307,1.49554 6.59595,-1.42089 10.20037,1.42087 15.64695,-0.67303 -0.69104,-6.20659 0.65527,-9.93795 0.61982,-12.18134 z"
       id="path3484-5"
       style="fill:#ffff;fill-opacity:1;stroke:#161111;stroke-width:0.94945729;stroke-linecap:round;stroke-linejoin:round;stroke-miterlimit:4;stroke-dasharray:none;stroke-opacity:1"
       inkscape:connector-curvature="0" />
    <path
       sodipodi:nodetypes="cc"
       inkscape:connector-curvature="0"
       style="fill:none;fill-opacity:1;stroke:#161111;stroke-width:0.94999999;stroke-miterlimit:4;stroke-dasharray:none;stroke-opacity:1"
       id="path3488-5"
       d="m 210.25099,160.65706 c 0.15032,-7.6679 7.10491,-16.02921 9.77711,-17.67446" />
    <path
       sodipodi:nodetypes="cccc"
       inkscape:connector-curvature="0"
       id="path3953-9"
       d="m 200.34284,148.06421 c 2.05418,-0.8101 4.18709,-1.3982 6.27428,-2.1119 2.55434,-0.72051 5.02785,-1.75322 7.6637,-2.16138 1.26995,-0.25881 4.30908,-1.06687 5.60442,-1.15428"
       style="fill:none;stroke:#161111;stroke-width:0.94999999;stroke-linecap:butt;stroke-linejoin:miter;stroke-miterlimit:4;stroke-dasharray:none;stroke-opacity:1" />
    <path
       sodipodi:nodetypes="ccccsc"
       inkscape:connector-curvature="0"
       id="path3960-0"
       d="m 196.37517,167.9824 c 0.2192,0.39 0.73719,0.4111 1.46518,0.46569 0.79999,0.0119 0.92234,0.0371 1.42866,0.034 0.89582,-0.0129 1.47455,-0.0137 2.3703,0.003 0.68144,-0.0215 2.98867,-0.46473 4.70583,-0.60288 0.96102,-0.0773 1.72798,0.14927 2.22598,0.18287"
       style="fill:none;stroke:#161111;stroke-width:0.94999999;stroke-linecap:round;stroke-linejoin:round;stroke-miterlimit:4;stroke-dasharray:none;stroke-opacity:1" />
    <path
       sodipodi:nodetypes="csccc"
       inkscape:connector-curvature="0"
       id="path3962-8"
       d="m 207.37544,167.88216 c 0.14622,0.12008 1.44908,0.11259 2.40739,0.4086 0.8459,0.26133 1.43766,0.31529 1.59281,0.37659 0.59043,0.0638 0.20066,0.37733 3.50599,0.11118 2.05032,0.13101 3.86567,-1.63948 4.37741,-2.11748"
       style="fill:none;stroke:#161111;stroke-width:0.9495669px;stroke-linecap:round;stroke-linejoin:round;stroke-opacity:1" />
  </g>
</svg>